<?xml version="1.0" standalone="no"?>
<!DOCTYPE svg PUBLIC "-//W3C//DTD SVG 20010904//EN"
 "http://www.w3.org/TR/2001/REC-SVG-20010904/DTD/svg10.dtd">
<svg version="1.0" xmlns="http://www.w3.org/2000/svg"
 width="189.000000pt" height="189.000000pt" viewBox="0 0 189.000000 189.000000"
 preserveAspectRatio="xMidYMid meet">
<metadata>
Created by potrace 1.14, written by Peter Selinger 2001-2017
</metadata>
<g transform="translate(0.000000,189.000000) scale(0.100000,-0.100000)"
fill="#000000" stroke="none">
<path d="M0 1298 c1 -24 37 -95 61 -117 13 -13 41 -32 62 -43 54 -27 40 -33
-27 -10 l-56 19 16 -26 c31 -48 82 -83 159 -109 l30 -10 -38 -1 c-21 -1 -47 4
-59 10 -31 16 -32 4 -2 -24 26 -24 107 -56 148 -58 19 -1 18 -2 -4 -8 -14 -4
-38 -6 -54 -4 -18 3 -26 1 -22 -6 11 -17 88 -59 120 -65 51 -9 45 -21 -9 -17
-38 3 20 -36 76 -50 36 -9 45 -15 32 -20 -15 -5 -13 -8 14 -22 18 -10 47 -17
65 -18 31 0 32 -1 11 -11 -13 -6 -23 -14 -23 -18 0 -8 68 -30 96 -31 18 0 18
-1 -1 -9 -19 -7 -18 -9 8 -19 16 -6 40 -11 54 -11 18 0 24 -4 19 -15 -4 -12 6
-15 62 -14 136 2 177 40 96 90 -53 32 -81 90 -94 193 -12 98 -24 128 -67 167
-46 44 -87 59 -251 94 -87 19 -175 39 -197 46 -70 19 -160 65 -193 99 -18 17
-32 26 -32 18z"/>
<path d="M1862 1290 c-37 -59 -238 -130 -502 -176 -42 -8 -103 -34 -138 -60
-42 -33 -69 -88 -76 -155 -11 -105 -18 -129 -46 -168 -16 -21 -43 -47 -59 -57
-41 -24 -40 -51 4 -70 39 -16 170 -20 160 -4 -7 11 3 16 58 25 39 6 49 20 20
28 -11 3 -7 5 10 6 15 0 44 8 65 17 l37 16 -29 13 -29 12 50 7 c55 7 106 34
68 36 -11 1 3 9 30 19 28 9 62 24 75 34 l24 17 -39 1 -40 0 50 16 c28 8 68 28
90 44 l39 29 -47 -1 c-60 -3 -70 6 -16 15 49 8 84 25 124 61 21 20 24 25 10
21 -10 -4 -40 -9 -65 -12 l-45 -5 59 25 c58 25 108 64 128 100 9 17 7 18 -18
11 -61 -16 -94 -23 -94 -19 0 2 22 15 49 29 54 27 84 62 106 124 15 43 8 55
-13 21z"/>
</g>
</svg>
